<svg width="68" height="67" viewBox="0 0 68 67" fill="none" xmlns="http://www.w3.org/2000/svg">
<path d="M37.6799 8.42617L18.1496 14.4376C11.0324 16.6282 7.9973 22.1449 9.75752 29.6911L14.5832 50.379C16.3434 57.9252 21.3731 60.9595 28.4903 58.7689L48.0206 52.7575C55.1378 50.5668 58.1543 45.0558 56.3941 37.5097L51.5684 16.8218C49.8082 9.27558 44.7971 6.23553 37.6799 8.42617Z" fill="url(#paint0_linear_42_44)"/>
<g opacity="0.5" filter="url(#filter0_f_42_44)">
<path d="M36.2821 17.6791L23.3814 21.6497C18.6802 23.0967 16.6436 26.6043 17.7502 31.3481L20.7839 44.3534C21.8905 49.0973 25.1811 50.9652 29.8823 49.5183L42.783 45.5476C47.4842 44.1007 49.5086 40.5969 48.402 35.853L45.3682 22.8477C44.2616 18.1039 40.9833 16.2322 36.2821 17.6791Z" fill="#E31313"/>
</g>
<g filter="url(#filter1_b_42_44)">
<path d="M50.5634 19.2966H32.1057C24.8886 19.2966 20.0347 24.8543 20.0347 33.1208V52.199C20.0347 60.4421 24.8886 65.9998 32.1057 65.9998H50.5634C57.7805 65.9998 62.6131 60.4421 62.6131 52.199V33.1208C62.6131 24.8543 57.7805 19.2966 50.5634 19.2966Z" fill="#F03E3D"/>
<path d="M50.5634 18.7966H32.1057C28.3602 18.7966 25.2025 20.243 22.9872 22.7799C20.777 25.3109 19.5347 28.8916 19.5347 33.1208V52.199C19.5347 56.4168 20.7771 59.9917 22.9874 62.5197C25.2027 65.0535 28.3602 66.4998 32.1057 66.4998H50.5634C54.309 66.4998 57.4615 65.0534 59.6715 62.5192C61.8763 59.991 63.1131 56.4163 63.1131 52.199V33.1208C63.1131 28.8921 61.8765 25.3116 59.6717 22.7804C57.4616 20.2431 54.309 18.7966 50.5634 18.7966Z" stroke="url(#paint1_linear_42_44)" stroke-linecap="round" stroke-linejoin="round"/>
</g>
<g filter="url(#filter2_b_42_44)">
<path d="M64.8719 15.8657C63.1442 15.8657 61.7437 17.4019 61.7437 19.297C61.7437 21.192 63.1442 22.7282 64.8719 22.7282C66.5995 22.7282 68.0001 21.192 68.0001 19.297C68.0001 18.3869 67.6705 17.5142 67.0838 16.8707C66.4972 16.2272 65.7015 15.8657 64.8719 15.8657Z" fill="url(#paint2_linear_42_44)"/>
</g>
<g filter="url(#filter3_bd_42_44)">
<path d="M52.4624 38.5129L46.3783 47.1245C46.1223 47.4988 45.7384 47.743 45.3147 47.801C44.8911 47.859 44.4641 47.7258 44.1319 47.4321L38.2911 42.4086L33.0307 49.872C32.6497 50.5355 31.9078 50.8337 31.2255 50.5974C30.5432 50.3612 30.0925 49.6501 30.129 48.8673C30.1259 48.48 30.2449 48.1034 30.466 47.8011L36.756 38.9025C37.0089 38.5312 37.3877 38.2871 37.8069 38.2254C38.2261 38.1636 38.6503 38.2895 38.9838 38.5744L44.8245 43.6184L49.9539 36.3805C50.2005 36.0073 50.5747 35.7596 50.991 35.6939C51.4073 35.6282 51.8301 35.7502 52.1629 36.0319C52.8504 36.6217 52.9833 37.7042 52.4624 38.4719V38.5129Z" fill="url(#paint3_linear_42_44)"/>
<path d="M46.215 47.0091L46.2149 47.0091L46.2132 47.0116C45.987 47.3425 45.6516 47.553 45.2876 47.6029C44.924 47.6526 44.5548 47.5391 44.2644 47.2822L44.2623 47.2804L38.4215 42.257L38.2545 42.1134L38.1276 42.2934L32.8672 49.7568L32.8619 49.7644L32.8572 49.7724C32.5199 50.3599 31.8748 50.6106 31.2909 50.4084C30.7018 50.2044 30.2959 49.5812 30.3288 48.8767L30.3291 48.8767L30.329 48.8657C30.3262 48.5198 30.4326 48.1855 30.6274 47.9192L30.6274 47.9192L30.6293 47.9166L36.9194 39.0179L36.9194 39.0179L36.9213 39.0151C37.1449 38.6868 37.4758 38.4763 37.8361 38.4232C38.1956 38.3703 38.5622 38.4774 38.8534 38.7261C38.8536 38.7262 38.8537 38.7263 38.8538 38.7265L44.6938 43.7697L44.8604 43.9136L44.9877 43.734L50.1171 36.4961L50.1172 36.4962L50.1208 36.4908C50.3385 36.1612 50.6651 35.9478 51.0222 35.8915C51.3786 35.8352 51.7431 35.9388 52.0331 36.1841C52.6401 36.7053 52.7627 37.6731 52.2969 38.3596L52.2624 38.4105V38.4494L46.215 47.0091Z" stroke="url(#paint4_linear_42_44)" stroke-width="0.4"/>
</g>
<defs>
<filter id="filter0_f_42_44" x="0.455566" y="0.201172" width="65.2422" height="66.7954" filterUnits="userSpaceOnUse" color-interpolation-filters="sRGB">
<feFlood flood-opacity="0" result="BackgroundImageFix"/>
<feBlend mode="normal" in="SourceGraphic" in2="BackgroundImageFix" result="shape"/>
<feGaussianBlur stdDeviation="8.5" result="effect1_foregroundBlur_42_44"/>
</filter>
<filter id="filter1_b_42_44" x="-4.96533" y="-5.70337" width="92.5786" height="96.7031" filterUnits="userSpaceOnUse" color-interpolation-filters="sRGB">
<feFlood flood-opacity="0" result="BackgroundImageFix"/>
<feGaussianBlur in="BackgroundImageFix" stdDeviation="12"/>
<feComposite in2="SourceAlpha" operator="in" result="effect1_backgroundBlur_42_44"/>
<feBlend mode="normal" in="SourceGraphic" in2="effect1_backgroundBlur_42_44" result="shape"/>
</filter>
<filter id="filter2_b_42_44" x="46.7437" y="0.865723" width="36.2563" height="36.8625" filterUnits="userSpaceOnUse" color-interpolation-filters="sRGB">
<feFlood flood-opacity="0" result="BackgroundImageFix"/>
<feGaussianBlur in="BackgroundImageFix" stdDeviation="7.5"/>
<feComposite in2="SourceAlpha" operator="in" result="effect1_backgroundBlur_42_44"/>
<feBlend mode="normal" in="SourceGraphic" in2="effect1_backgroundBlur_42_44" result="shape"/>
</filter>
<filter id="filter3_bd_42_44" x="15.127" y="20.6765" width="52.6533" height="45.0012" filterUnits="userSpaceOnUse" color-interpolation-filters="sRGB">
<feFlood flood-opacity="0" result="BackgroundImageFix"/>
<feGaussianBlur in="BackgroundImageFix" stdDeviation="7.5"/>
<feComposite in2="SourceAlpha" operator="in" result="effect1_backgroundBlur_42_44"/>
<feColorMatrix in="SourceAlpha" type="matrix" values="0 0 0 0 0 0 0 0 0 0 0 0 0 0 0 0 0 0 127 0" result="hardAlpha"/>
<feOffset dx="5" dy="5"/>
<feGaussianBlur stdDeviation="5"/>
<feColorMatrix type="matrix" values="0 0 0 0 1 0 0 0 0 0.321569 0 0 0 0 0.54902 0 0 0 0.5 0"/>
<feBlend mode="normal" in2="effect1_backgroundBlur_42_44" result="effect2_dropShadow_42_44"/>
<feBlend mode="normal" in="SourceGraphic" in2="effect2_dropShadow_42_44" result="shape"/>
</filter>
<linearGradient id="paint0_linear_42_44" x1="36.8464" y1="35.6215" x2="2.4676" y2="63.315" gradientUnits="userSpaceOnUse">
<stop stop-color="#F03E3D"/>
<stop offset="1" stop-color="#870404"/>
</linearGradient>
<linearGradient id="paint1_linear_42_44" x1="26.8125" y1="24.7376" x2="57.065" y2="58.8969" gradientUnits="userSpaceOnUse">
<stop stop-color="white" stop-opacity="0.25"/>
<stop offset="1" stop-color="white" stop-opacity="0"/>
</linearGradient>
<linearGradient id="paint2_linear_42_44" x1="65.3325" y1="19.7565" x2="59.6516" y2="22.2747" gradientUnits="userSpaceOnUse">
<stop stop-color="#FF759F" stop-opacity="0"/>
<stop offset="1" stop-color="#FF196E"/>
</linearGradient>
<linearGradient id="paint3_linear_42_44" x1="51.1741" y1="38.3854" x2="25.9748" y2="39.6261" gradientUnits="userSpaceOnUse">
<stop stop-color="white"/>
<stop offset="1" stop-color="white" stop-opacity="0.2"/>
</linearGradient>
<linearGradient id="paint4_linear_42_44" x1="33.733" y1="37.4242" x2="41.8736" y2="52.6495" gradientUnits="userSpaceOnUse">
<stop stop-color="white" stop-opacity="0.25"/>
<stop offset="1" stop-color="white" stop-opacity="0"/>
</linearGradient>
</defs>
</svg>
